<svg version="1.0" xmlns="http://www.w3.org/2000/svg"
    xmlns:xlink="http://www.w3.org/1999/xlink" width="100%" height="100%"
    viewBox="0 0 340.000000 250.000000" preserveAspectRatio="xMidYMid meet"
    color-interpolation-filters="sRGB" style="margin: auto;">
    <!--rect x="0" y="0" width="100%" height="100%" fill="#ffffff" fill-opacity="1"
        class="background"></rect-->
    <g fill="#01ADD8" class="icon-text-wrapper icon-svg-group iconsvg"
        transform="translate(0.0,0.0)">
        <g class="iconsvg-imagesvg" transform="translate(0,0)">
						<!-- icon -->
            <g>
                <rect fill="#01ADD8" fill-opacity="0" stroke-width="2" x="0" y="0"
                    width="40.799999999999976" height="40.83103158400382" class="image-rect"></rect>
                <svg x="0" y="0" width="40.799999999999976" height="40.83103158400382"
                    filtersec="colorsb2559151409" class="image-svg-svg primary"
                    style="overflow: visible;">
                    <svg xmlns="http://www.w3.org/2000/svg"
                        viewBox="0.0186874121427536 0.03168483451008797 71.8552474975586 71.91011047363281">
                        <title>icon</title>
                        <path
                            d="M71.85 12.61c0 2.6.05 5.21 0 7.81-.09 3.42-2.1 4.7-5.32 4.78-5.32.13-7.43-.78-7.59-4.23-.26-5.67-.21-11.36 0-17 .1-2.56 1.76-4 4.53-3.93h3.55c3.35-.15 4.72 1.74 4.82 4.79.07 2.57.01 5.17.01 7.78zM71.86 41.53v4.27c0 5.63-1.08 6.68-6.6 6.67-5.29 0-6.45-1.15-6.47-6.47 0-3.43-.07-6.87 0-10.31.11-3.79 1.49-5.11 5.18-5.19 7.16-.16 7.86.53 7.87 7.83z"
                            fill="#0c5ca1"></path>
                        <path
                            d="M13 60.69c0 1.18-.07 2.37 0 3.55.63 8.1-2.69 7.89-9.93 7.18-2.2-.21-3-2.2-3-4.24C0 62.93 0 58.67.08 54.43c.09-3.1 1.76-4.77 5-4.63h2.84c3.73.09 5 1.36 5.06 5.21.02 1.9.02 3.79.02 5.68z"
                            fill="#183883"></path>
                        <path
                            d="M19.6 44v-2.48c0-5.88 1-6.86 6.81-6.82 5.08 0 6.2 1.15 6.25 6.34v7.82c-.05 3.15-1.55 4.87-4.83 4.79h-3.2c-3.61-.14-4.85-1.37-5-5-.08-1.65-.03-3.15-.03-4.65z"
                            fill="#1ca3e4"></path>
                        <path
                            d="M52.14 62.47v2.84c0 5.46-.93 6.36-6.42 6.36s-6.35-.89-6.37-6.42c0-2.6-.05-5.21 0-7.81.08-2.83 1.5-4.4 4.44-4.37h3.2c3.88.08 5 1.2 5.11 5.13.07 1.42.04 2.8.04 4.27z"
                            fill="#0c5ca1"></path>
                        <path
                            d="M71.85 64.66c0 6.14-.82 7-6.52 7s-6.55-1-6.54-7c0-5.86 1.05-6.93 6.73-6.92 5.33 0 6.33 1.09 6.33 6.92z"
                            fill="#0c5ca1"></path>
                        <path
                            d="M26.23 58.71c5.35 0 6.42 1.08 6.42 6.47S31.34 72 26 71.94s-6.43-1.27-6.43-6.56c.02-5.52 1.18-6.68 6.66-6.67z"
                            fill="#183883"></path>
                        <path
                            d="M52.15 40.81c0 6.16-5.37 9.21-10.68 6.32a4 4 0 0 1-2-3.14c-.13-.93 0-1.89-.1-2.83-.56-8.43 2.93-8 9.85-7.16 3.67.47 2.78 4.29 2.93 6.81zM45.91 15.56c5.37 0 6.27.94 6.25 6.52 0 5.21-1 6.24-6.22 6.24-5.7 0-6.61-.9-6.59-6.56.01-5.34.93-6.2 6.56-6.2z"
                            fill="#0c5ca1"></path>
                    </svg>
                </svg>
            </g>
        </g>
        <g transform="translate(47.79999923706055,0.449920654296875)">
						<!-- title -->
            <g data-gra="path-name" fill-rule="" class="tp-name iconsvg-namesvg"
                transform="translate(0,0)">
                <g transform="scale(1)">
                    <g>
                        <path
                            d="M2.44 0L5.61 0 5.61-12.57C5.61-15.51 7.43-16.6 9.8-16.6 12.14-16.6 13.63-16.07 13.63-12.61L13.63 0 16.8 0 16.8-11.62C16.8-15.05 18.25-16.53 21.05-16.53 23.33-16.53 24.82-15.38 24.82-12.54L24.82 0 27.98 0 27.98-12.47C27.98-17.92 25.67-19.54 21.45-19.54 18.71-19.54 16.8-18.71 15.54-17.16 14.62-18.78 12.77-19.54 10.26-19.54 8.35-19.54 6.53-18.98 5.31-17.19L5.08-19.3 2.44-19.3ZM35.94 0L35.94-19.17 32.8-19.17 32.8 0ZM32.51-23.73C32.51-21.22 36.3-21.38 36.3-23.73 36.3-26.24 32.51-26.14 32.51-23.73ZM40.95 0L44.12 0 44.12-12.57C44.12-15.31 46-16.66 48.38-16.66 50.66-16.66 52.14-15.28 52.14-12.54L52.14 0 55.31 0 55.31-12.57C55.31-17.72 53.16-19.54 48.91-19.54 47.03-19.54 45.11-19.14 43.96-17.26L43.76-19.3 40.95-19.3ZM63.1 0L63.1-19.17 59.96-19.17 59.96 0ZM59.66-23.73C59.66-21.22 63.46-21.38 63.46-23.73 63.46-26.24 59.66-26.14 59.66-23.73ZM80.06-13.86C80.16-17.42 78.08-19.54 73.62-19.54 69.1-19.54 66.92-17.03 66.92-13.63 66.92-9.27 70.49-8.58 72.83-8.42 75.21-8.25 77.45-8.05 77.45-5.78 77.45-3.93 76.13-2.71 73.76-2.71 71.74-2.71 70.09-3.53 69.93-5.97L66.76-5.97C66.92-1.88 69.33 0.17 73.76 0.17 77.75 0.17 80.59-1.78 80.59-5.81 80.59-10.49 77.09-10.92 74.15-11.19 71.81-11.38 70.06-11.35 70.06-13.63 70.06-15.71 71.35-16.7 73.52-16.7 75.97-16.7 77.06-15.68 77.06-13.86ZM83.72-5.31C83.72-1.72 85.14 0.56 90.26 0L90.26-2.9C87.68-2.57 86.79-3.47 86.79-5.41L86.79-16.24 90.12-16.24 90.12-19.21 86.79-19.21 86.79-23.03 83.72-22.67ZM101.81-19.3C99.43-19.8 97.22-18.98 96.26-17.52L96.13-19.3 93.26-19.3 93.26 0.03 96.39 0.03 96.39-12.38C96.39-15.35 98.77-16.6 101.81-16.1ZM115.14-5.61C115.14-3.63 113.88-2.71 111.11-2.71 108.34-2.71 107.08-3.5 107.08-6.93L107.08-8.38 118.24-8.38 118.24-12.51C118.24-17.52 115.43-19.4 111.11-19.4 106.72-19.4 103.98-17.56 103.98-12.51L103.98-6.86C103.98-1.68 105.96 0.2 111.11 0.2 116.13 0.2 118.17-1.88 118.17-5.61ZM107.08-12.51C107.08-15.94 108.64-16.63 111.11-16.63 113.59-16.63 115.24-15.91 115.24-12.51L115.24-11.12 107.08-11.12ZM135.2-13.04C135.2-17.72 132.69-19.5 128.47-19.5 124.38-19.5 122.13-17.69 122.27-13.4L125.33-13.4C125.3-16 126.56-16.63 128.37-16.63 131.27-16.63 132.03-15.21 132.03-13.04L132.03-11.15C130.51-11.12 128.9-11.09 127.38-10.86 123.42-10.3 121.11-7.85 121.44-4.46 121.67-2.18 122.76 0.17 127.18 0.17 129.53 0.17 131.41-1.19 132.1-2.61L132.36 0 135.2 0ZM132.1-8.55C132-5.38 130.98-2.84 127.51-2.84 126.09-2.84 124.74-3.33 124.61-4.85 124.38-6.73 125.5-7.76 127.64-8.22 129.29-8.58 131.21-8.55 132.1-8.55ZM139.72 0L142.89 0 142.89-12.57C142.89-15.51 144.71-16.6 147.08-16.6 149.42-16.6 150.91-16.07 150.91-12.61L150.91 0 154.08 0 154.08-11.62C154.08-15.05 155.53-16.53 158.33-16.53 160.61-16.53 162.1-15.38 162.1-12.54L162.1 0 165.26 0 165.26-12.47C165.26-17.92 162.95-19.54 158.73-19.54 155.99-19.54 154.08-18.71 152.82-17.16 151.9-18.78 150.05-19.54 147.54-19.54 145.63-19.54 143.81-18.98 142.59-17.19L142.36-19.3 139.72-19.3Z"
                            transform="translate(-2.440000057220459, 25.5751895904541)"></path>
                    </g>
                </g>
            </g>
						<!-- subtitle -->
            <g data-gra="path-slogan" fill-rule="" class="tp-slogan iconsvg-slogansvg"
                fill="#5EC9E3" transform="translate(27.889995574951172,31.775190353393555)">
                <g transform="scale(1, 1)">
                    <g transform="scale(1)">
                        <path
                            d="M1.08 0L1.08-7.87L5.62-7.87L5.62-7.03L2.08-7.03L2.08-4.56L5.06-4.56L5.06-3.71L2.08-3.71L2.08-0.85L5.74-0.85L5.74 0L1.08 0ZM9.84 0L7.32-7.87L8.39-7.87L9.65-3.62Q9.87-2.92 10.03-2.32Q10.19-1.72 10.42-1.02L10.42-1.02L10.47-1.02Q10.68-1.72 10.85-2.32Q11.02-2.92 11.22-3.62L11.22-3.62L12.48-7.87L13.50-7.87L11.01 0L9.84 0ZM15.58 0L15.58-7.87L20.12-7.87L20.12-7.03L16.58-7.03L16.58-4.56L19.57-4.56L19.57-3.71L16.58-3.71L16.58-0.85L20.24-0.85L20.24 0L15.58 0ZM22.91 0L22.91-7.87L23.94-7.87L26.78-2.93L27.64-1.30L27.68-1.30Q27.65-1.90 27.61-2.54Q27.56-3.18 27.56-3.80L27.56-3.80L27.56-7.87L28.51-7.87L28.51 0L27.48 0L24.62-4.96L23.77-6.58L23.72-6.58Q23.77-5.98 23.81-5.36Q23.86-4.74 23.86-4.12L23.86-4.12L23.86 0L22.91 0ZM33.30 0L33.30-7.03L30.93-7.03L30.93-7.87L36.69-7.87L36.69-7.03L34.31-7.03L34.31 0L33.30 0ZM41.95-1.02L42.55-1.72Q42.97-1.27 43.54-1.00Q44.11-0.73 44.72-0.73L44.72-0.73Q45.50-0.73 45.94-1.09Q46.37-1.44 46.37-2.02L46.37-2.02Q46.37-2.32 46.27-2.53Q46.16-2.74 45.99-2.89Q45.82-3.04 45.58-3.16Q45.34-3.28 45.06-3.41L45.06-3.41L43.93-3.90Q43.66-4.02 43.37-4.19Q43.08-4.36 42.85-4.60Q42.62-4.84 42.48-5.17Q42.34-5.50 42.34-5.93L42.34-5.93Q42.34-6.37 42.52-6.76Q42.71-7.14 43.04-7.42Q43.37-7.70 43.82-7.86Q44.27-8.02 44.81-8.02L44.81-8.02Q45.52-8.02 46.12-7.75Q46.72-7.48 47.14-7.04L47.14-7.04L46.60-6.40Q46.24-6.74 45.80-6.94Q45.36-7.14 44.81-7.14L44.81-7.14Q44.15-7.14 43.75-6.83Q43.34-6.53 43.34-5.99L43.34-5.99Q43.34-5.70 43.46-5.50Q43.57-5.30 43.76-5.15Q43.96-5.00 44.18-4.89Q44.41-4.78 44.65-4.68L44.65-4.68L45.77-4.20Q46.10-4.06 46.40-3.87Q46.70-3.68 46.92-3.44Q47.14-3.19 47.26-2.86Q47.39-2.53 47.39-2.10L47.39-2.10Q47.39-1.63 47.20-1.22Q47.02-0.82 46.67-0.51Q46.32-0.20 45.83-0.03Q45.34 0.14 44.71 0.14L44.71 0.14Q43.88 0.14 43.18-0.17Q42.47-0.48 41.95-1.02L41.95-1.02ZM51.33 0L51.33-7.03L48.95-7.03L48.95-7.87L54.71-7.87L54.71-7.03L52.34-7.03L52.34 0L51.33 0ZM58.12-7.07L58.12-4.14L59.44-4.14Q60.37-4.14 60.86-4.52Q61.35-4.90 61.35-5.66L61.35-5.66Q61.35-6.44 60.86-6.76Q60.37-7.07 59.44-7.07L59.44-7.07L58.12-7.07ZM62.58 0L61.45 0L59.55-3.32L58.12-3.32L58.12 0L57.13 0L57.13-7.87L59.59-7.87Q60.19-7.87 60.70-7.76Q61.21-7.64 61.57-7.38Q61.94-7.12 62.14-6.70Q62.35-6.28 62.35-5.66L62.35-5.66Q62.35-4.74 61.87-4.19Q61.39-3.64 60.58-3.43L60.58-3.43L62.58 0ZM65.10 0L65.10-7.87L69.64-7.87L69.64-7.03L66.10-7.03L66.10-4.56L69.08-4.56L69.08-3.71L66.10-3.71L66.10-0.85L69.76-0.85L69.76 0L65.10 0ZM73.41-3.20L75.77-3.20L75.40-4.40Q75.18-5.06 74.99-5.72Q74.80-6.37 74.61-7.06L74.61-7.06L74.56-7.06Q74.38-6.37 74.19-5.72Q74.00-5.06 73.78-4.40L73.78-4.40L73.41-3.20ZM76.77 0L76.02-2.40L73.16-2.40L72.40 0L71.38 0L74.04-7.87L75.17-7.87L77.84 0L76.77 0ZM79.95 0L79.95-7.87L81.13-7.87L82.65-3.65L83.23-2.04L83.28-2.04L83.83-3.65L85.34-7.87L86.52-7.87L86.52 0L85.57 0L85.57-4.33Q85.57-4.86 85.61-5.50Q85.65-6.13 85.70-6.66L85.70-6.66L85.65-6.66L85.02-4.91L83.50-0.79L82.94-0.79L81.42-4.91L80.79-6.66L80.74-6.66Q80.78-6.13 80.83-5.50Q80.88-4.86 80.88-4.33L80.88-4.33L80.88 0L79.95 0ZM89.68 0L89.68-7.87L90.67-7.87L90.67 0L89.68 0ZM93.83 0L93.83-7.87L94.86-7.87L97.71-2.93L98.56-1.30L98.61-1.30Q98.57-1.90 98.53-2.54Q98.49-3.18 98.49-3.80L98.49-3.80L98.49-7.87L99.44-7.87L99.44 0L98.40 0L95.55-4.96L94.70-6.58L94.65-6.58Q94.70-5.98 94.74-5.36Q94.78-4.74 94.78-4.12L94.78-4.12L94.78 0L93.83 0ZM102.14-3.94L102.14-3.94Q102.14-4.88 102.41-5.64Q102.68-6.40 103.17-6.92Q103.65-7.45 104.31-7.73Q104.97-8.02 105.76-8.02L105.76-8.02Q106.58-8.02 107.13-7.71Q107.67-7.40 108.02-7.04L108.02-7.04L107.46-6.41Q107.16-6.72 106.77-6.93Q106.38-7.14 105.78-7.14L105.78-7.14Q105.18-7.14 104.70-6.92Q104.22-6.70 103.88-6.28Q103.54-5.87 103.36-5.28Q103.17-4.69 103.17-3.96L103.17-3.96Q103.17-3.22 103.35-2.62Q103.52-2.03 103.85-1.61Q104.18-1.19 104.67-0.96Q105.15-0.73 105.79-0.73L105.79-0.73Q106.21-0.73 106.59-0.86Q106.96-0.98 107.20-1.20L107.20-1.20L107.20-3.25L105.54-3.25L105.54-4.08L108.12-4.08L108.12-0.77Q107.73-0.37 107.10-0.11Q106.47 0.14 105.68 0.14L105.68 0.14Q104.90 0.14 104.25-0.13Q103.60-0.41 103.14-0.93Q102.67-1.45 102.40-2.21Q102.14-2.98 102.14-3.94Z"
                            transform="translate(-1.08, 8.016)"></path>
                    </g>
                </g>
            </g>
        </g>
    </g>
    <defs v-gra="od"></defs>
</svg>
